<svg xmlns="http://www.w3.org/2000/svg" width="723" height="96" viewBox="0 0 723 96" role="img" aria-label="Language share across public repositories, by bytes of code" font-family='-apple-system, BlinkMacSystemFont, "Segoe UI", Helvetica, Arial, sans-serif'><title>Language share across public repositories, by bytes of code</title><defs><clipPath id="bar-clip"><rect x="0" y="0" width="723" height="20" rx="4" ry="4"/></clipPath></defs><g clip-path="url(#bar-clip)"><rect x="0" y="0" width="723" height="20" fill="#21262D"/><rect x="0" y="0" width="624.7" height="20" fill="#6BA8E5"/><rect x="624.2" y="0" width="59.98" height="20" fill="#78AFE7"/><rect x="683.68" y="0" width="10.4" height="20" fill="#84B6EA"/><rect x="693.58" y="0" width="8.25" height="20" fill="#90BEEC"/><rect x="701.33" y="0" width="7.98" height="20" fill="#9DC5EE"/><rect x="708.81" y="0" width="5.08" height="20" fill="#AACCF0"/><rect x="713.38" y="0" width="4.67" height="20" fill="#B6D4F2"/><rect x="717.55" y="0" width="3.15" height="20" fill="#C2DBF5"/><rect x="720.21" y="0" width="3.29" height="20" fill="#CFE2F7"/></g><rect x="0" y="27" width="10" height="10" fill="#6BA8E5" rx="2" ry="2"/><text x="17" y="36" fill="#E6EDF3" font-size="11" font-weight="normal" text-anchor="start">Python 86.3%</text><rect x="241" y="27" width="10" height="10" fill="#78AFE7" rx="2" ry="2"/><text x="258" y="36" fill="#E6EDF3" font-size="11" font-weight="normal" text-anchor="start">Jupyter Notebook 8.2%</text><rect x="482" y="27" width="10" height="10" fill="#84B6EA" rx="2" ry="2"/><text x="499" y="36" fill="#E6EDF3" font-size="11" font-weight="normal" text-anchor="start">Cython 1.4%</text><rect x="0" y="47" width="10" height="10" fill="#90BEEC" rx="2" ry="2"/><text x="17" y="56" fill="#E6EDF3" font-size="11" font-weight="normal" text-anchor="start">Swift 1.1%</text><rect x="241" y="47" width="10" height="10" fill="#9DC5EE" rx="2" ry="2"/><text x="258" y="56" fill="#E6EDF3" font-size="11" font-weight="normal" text-anchor="start">JavaScript 1.0%</text><rect x="482" y="47" width="10" height="10" fill="#AACCF0" rx="2" ry="2"/><text x="499" y="56" fill="#E6EDF3" font-size="11" font-weight="normal" text-anchor="start">TeX 0.6%</text><rect x="0" y="67" width="10" height="10" fill="#B6D4F2" rx="2" ry="2"/><text x="17" y="76" fill="#E6EDF3" font-size="11" font-weight="normal" text-anchor="start">C 0.6%</text><rect x="241" y="67" width="10" height="10" fill="#C2DBF5" rx="2" ry="2"/><text x="258" y="76" fill="#E6EDF3" font-size="11" font-weight="normal" text-anchor="start">CSS 0.4%</text><rect x="482" y="67" width="10" height="10" fill="#CFE2F7" rx="2" ry="2"/><text x="499" y="76" fill="#E6EDF3" font-size="11" font-weight="normal" text-anchor="start">Other 0.4%</text></svg>