<svg xmlns="http://www.w3.org/2000/svg" width="723" height="96" viewBox="0 0 723 96" role="img" aria-label="Language share across public repositories, by bytes of code" font-family='-apple-system, BlinkMacSystemFont, "Segoe UI", Helvetica, Arial, sans-serif'><title>Language share across public repositories, by bytes of code</title><defs><clipPath id="bar-clip"><rect x="0" y="0" width="723" height="20" rx="4" ry="4"/></clipPath></defs><g clip-path="url(#bar-clip)"><rect x="0" y="0" width="723" height="20" fill="#21262D"/><rect x="0" y="0" width="604.77" height="20" fill="#6BA8E5"/><rect x="604.27" y="0" width="58.08" height="20" fill="#78AFE7"/><rect x="661.84" y="0" width="30.5" height="20" fill="#84B6EA"/><rect x="691.84" y="0" width="10.08" height="20" fill="#90BEEC"/><rect x="701.43" y="0" width="7.74" height="20" fill="#9DC5EE"/><rect x="708.66" y="0" width="4.93" height="20" fill="#AACCF0"/><rect x="713.1" y="0" width="4.54" height="20" fill="#B6D4F2"/><rect x="717.13" y="0" width="3.07" height="20" fill="#C2DBF5"/><rect x="719.7" y="0" width="3.8" height="20" fill="#CFE2F7"/></g><rect x="0" y="27" width="10" height="10" fill="#6BA8E5" rx="2" ry="2"/><text x="17" y="36" fill="#E6EDF3" font-size="11" font-weight="normal" text-anchor="start">Python 83.6%</text><rect x="241" y="27" width="10" height="10" fill="#78AFE7" rx="2" ry="2"/><text x="258" y="36" fill="#E6EDF3" font-size="11" font-weight="normal" text-anchor="start">Jupyter Notebook 8.0%</text><rect x="482" y="27" width="10" height="10" fill="#84B6EA" rx="2" ry="2"/><text x="499" y="36" fill="#E6EDF3" font-size="11" font-weight="normal" text-anchor="start">Swift 4.1%</text><rect x="0" y="47" width="10" height="10" fill="#90BEEC" rx="2" ry="2"/><text x="17" y="56" fill="#E6EDF3" font-size="11" font-weight="normal" text-anchor="start">Cython 1.3%</text><rect x="241" y="47" width="10" height="10" fill="#9DC5EE" rx="2" ry="2"/><text x="258" y="56" fill="#E6EDF3" font-size="11" font-weight="normal" text-anchor="start">JavaScript 1.0%</text><rect x="482" y="47" width="10" height="10" fill="#AACCF0" rx="2" ry="2"/><text x="499" y="56" fill="#E6EDF3" font-size="11" font-weight="normal" text-anchor="start">TeX 0.6%</text><rect x="0" y="67" width="10" height="10" fill="#B6D4F2" rx="2" ry="2"/><text x="17" y="76" fill="#E6EDF3" font-size="11" font-weight="normal" text-anchor="start">C 0.6%</text><rect x="241" y="67" width="10" height="10" fill="#C2DBF5" rx="2" ry="2"/><text x="258" y="76" fill="#E6EDF3" font-size="11" font-weight="normal" text-anchor="start">CSS 0.4%</text><rect x="482" y="67" width="10" height="10" fill="#CFE2F7" rx="2" ry="2"/><text x="499" y="76" fill="#E6EDF3" font-size="11" font-weight="normal" text-anchor="start">Other 0.5%</text></svg>