<svg xmlns="http://www.w3.org/2000/svg" width="723" height="96" viewBox="0 0 723 96" role="img" aria-label="Language share across public repositories, by bytes of code" font-family='-apple-system, BlinkMacSystemFont, "Segoe UI", Helvetica, Arial, sans-serif'><title>Language share across public repositories, by bytes of code</title><defs><clipPath id="bar-clip"><rect x="0" y="0" width="723" height="20" rx="4" ry="4"/></clipPath></defs><g clip-path="url(#bar-clip)"><rect x="0" y="0" width="723" height="20" fill="#EBEDF0"/><rect x="0" y="0" width="604.77" height="20" fill="#0B5394"/><rect x="604.27" y="0" width="58.08" height="20" fill="#1C5F9C"/><rect x="661.84" y="0" width="30.5" height="20" fill="#2D6BA3"/><rect x="691.84" y="0" width="10.08" height="20" fill="#3E77AB"/><rect x="701.43" y="0" width="7.74" height="20" fill="#5083B2"/><rect x="708.66" y="0" width="4.93" height="20" fill="#618FBA"/><rect x="713.1" y="0" width="4.54" height="20" fill="#729BC2"/><rect x="717.13" y="0" width="3.07" height="20" fill="#83A7C9"/><rect x="719.7" y="0" width="3.8" height="20" fill="#94B3D1"/></g><rect x="0" y="27" width="10" height="10" fill="#0B5394" rx="2" ry="2"/><text x="17" y="36" fill="#1F2328" font-size="11" font-weight="normal" text-anchor="start">Python 83.6%</text><rect x="241" y="27" width="10" height="10" fill="#1C5F9C" rx="2" ry="2"/><text x="258" y="36" fill="#1F2328" font-size="11" font-weight="normal" text-anchor="start">Jupyter Notebook 8.0%</text><rect x="482" y="27" width="10" height="10" fill="#2D6BA3" rx="2" ry="2"/><text x="499" y="36" fill="#1F2328" font-size="11" font-weight="normal" text-anchor="start">Swift 4.1%</text><rect x="0" y="47" width="10" height="10" fill="#3E77AB" rx="2" ry="2"/><text x="17" y="56" fill="#1F2328" font-size="11" font-weight="normal" text-anchor="start">Cython 1.3%</text><rect x="241" y="47" width="10" height="10" fill="#5083B2" rx="2" ry="2"/><text x="258" y="56" fill="#1F2328" font-size="11" font-weight="normal" text-anchor="start">JavaScript 1.0%</text><rect x="482" y="47" width="10" height="10" fill="#618FBA" rx="2" ry="2"/><text x="499" y="56" fill="#1F2328" font-size="11" font-weight="normal" text-anchor="start">TeX 0.6%</text><rect x="0" y="67" width="10" height="10" fill="#729BC2" rx="2" ry="2"/><text x="17" y="76" fill="#1F2328" font-size="11" font-weight="normal" text-anchor="start">C 0.6%</text><rect x="241" y="67" width="10" height="10" fill="#83A7C9" rx="2" ry="2"/><text x="258" y="76" fill="#1F2328" font-size="11" font-weight="normal" text-anchor="start">CSS 0.4%</text><rect x="482" y="67" width="10" height="10" fill="#94B3D1" rx="2" ry="2"/><text x="499" y="76" fill="#1F2328" font-size="11" font-weight="normal" text-anchor="start">Other 0.5%</text></svg>